<svg width="225" height="126" viewBox="0 0 225 126" fill="none" xmlns="http://www.w3.org/2000/svg">
<path d="M47.136 53.2251L42.9097 56.6002L46.7264 55.6267C46.4785 56.195 46.1286 56.7092 45.6766 57.1693C44.8499 58.0456 42.8008 59.4422 39.5294 61.3591C36.029 63.4466 33.0866 65.5842 30.7021 67.772C29.4526 68.9085 28.7301 69.1249 28.5346 68.4211L34.0759 64.025L29.7314 65.1452C30.0605 64.6123 30.2803 64.2636 30.3906 64.0991C31.0613 63.2706 32.1868 62.4183 33.7673 61.5421C32.695 61.5189 31.6 61.0606 30.4821 60.1672C29.3622 59.2342 28.7773 58.2929 28.7275 57.3435C28.6363 55.6029 29.7653 53.3024 32.1145 50.4422C34.4221 47.5445 36.466 46.049 38.2462 45.9557C38.4835 45.9432 38.7021 45.9516 38.902 45.9808L35.1318 48.975L40.6506 47.5552C40.7921 47.9842 40.8773 48.4756 40.9064 49.0294C40.9271 49.425 40.7677 50.1672 40.428 51.2561C40.0238 52.626 39.5635 53.3046 39.0472 53.292C38.6766 53.0338 38.1895 52.4444 37.586 51.524C37.2384 50.9472 36.7085 50.6775 35.9965 50.7148C35.5259 50.8188 35.0793 51.0009 34.6565 51.261C33.6195 51.9104 32.6615 52.9325 31.7826 54.3273C34.1973 56.5015 36.2948 57.5419 38.075 57.4486C39.2617 57.3864 42.1531 55.787 46.7489 52.6504C46.9842 52.5984 47.1111 52.7504 47.1298 53.1064L47.136 53.2251ZM19.2387 61.3514C20.5441 61.283 21.5615 59.881 22.2909 57.1453C21.4411 58.3402 20.7621 59.3873 20.2539 60.2867C20.1542 59.1415 20.2846 57.8455 20.6452 56.3985C20.2682 56.7753 19.882 56.974 19.4864 56.9948C18.1413 57.0653 17.3963 55.7159 17.2511 52.9467C17.191 51.7995 17.4944 49.6415 18.1614 46.4727C17.6095 47.295 17.17 47.9924 16.843 48.5649C16.7557 47.6571 16.8403 46.6213 17.0966 45.4575C15.7737 48.978 15.188 52.1822 15.3393 55.07L15.4513 57.2062C15.472 57.6018 15.5614 58.1723 15.7195 58.9178C16.325 60.6314 17.3002 61.453 18.6453 61.3825L19.2387 61.3514ZM64.5202 104.498C65.8257 104.429 66.8431 103.027 67.5724 100.292C66.7227 101.487 66.0239 102.535 65.4761 103.436C65.3765 102.291 65.5267 100.994 65.9267 99.5449C65.5498 99.9217 65.1635 100.12 64.7679 100.141C63.3833 100.214 62.6185 98.8654 62.4734 96.0962C62.4132 94.949 62.7364 92.7899 63.443 89.6191C62.891 90.4414 62.4516 91.1388 62.1245 91.7113C62.0352 90.7639 62.1 89.7292 62.3189 88.607C61.0355 92.1254 60.4695 95.3285 60.6209 98.2164L60.7328 100.353C60.7536 100.748 60.843 101.319 61.001 102.064C61.6065 103.778 62.562 104.6 63.8675 104.532L64.5202 104.498ZM39.6054 15.1216C39.2822 17.2806 38.8634 18.3736 38.3491 18.4006C38.1909 18.4089 37.3624 17.7383 35.8636 16.3888L35.0142 16.0763C33.4318 16.1592 32.1295 20.829 31.1072 30.0856L30.7416 31.0568C30.1255 29.899 29.423 28.9838 28.6341 28.3111C29.0439 30.0747 29.3235 32.0038 29.4729 34.0984C29.2875 34.3462 29.1157 34.4742 28.9575 34.4825C28.6015 34.5011 28.1729 33.1352 27.6717 30.3847C25.8405 25.7204 24.2557 22.7292 22.9172 21.4109L22.3238 21.442L21.5273 22.1383L20.9932 22.1663C19.8064 22.2285 18.4419 21.1695 16.8996 18.9892L16.8809 18.6332C17.9371 16.0787 18.8088 14.5454 19.496 14.0334L19.9707 14.0085C20.5136 16.0428 20.9255 17.846 21.2062 19.418C21.5647 17.9315 21.7732 16.2347 21.832 14.3275C24.8278 15.4796 27.3087 19.6734 29.2746 26.909L29.284 27.087L29.462 27.0777C30.5699 16.4282 32.6667 11.0226 35.7524 10.8608C36.6623 10.8132 37.6511 11.515 38.7189 12.9665C37.074 13.37 35.6622 13.682 34.4837 13.9025C35.9703 14.2609 37.6473 14.4705 39.5149 14.5313L39.6054 15.1216ZM80.0765 90.235C76.2787 90.434 73.4609 89.2726 71.623 86.7508C69.4021 83.7334 67.5233 77.7824 65.9867 68.8979C66.0663 75.7167 60.1673 82.7496 48.2896 89.9967C37.5259 96.5508 28.2475 100.032 20.4542 100.44C15.1928 100.716 10.7634 99.4607 7.16625 96.6741C12.4526 96.8731 17.6557 96.6202 22.7757 95.9156C18.7656 95.848 14.5029 94.3657 9.98757 91.4685C6.70462 89.3795 3.44991 86.694 0.223437 83.4119C0.152779 82.8206 0.1019 82.2282 0.0708019 81.6348C-0.155181 77.3228 0.550647 72.6248 2.18829 67.5407C2.77165 65.8044 3.39959 64.9186 4.07211 64.8834C4.34903 64.8689 4.49992 65.099 4.5248 65.5737C4.55383 66.1275 4.37668 66.9104 3.99335 67.9222C2.91627 70.8347 2.46377 73.9327 2.63585 77.2162C3.17282 87.4622 9.65426 92.2992 22.0802 91.7273C28.0953 91.4518 35.7298 88.7707 44.9836 83.6842C54.125 78.7226 59.8986 74.2152 62.3042 70.1619C62.9978 69.0149 63.2897 67.393 63.1798 65.2963C63.128 64.3074 62.9336 62.8696 62.5967 60.9832C62.3535 59.3696 62.2392 58.3243 62.2539 57.8476C62.1667 56.9398 61.9837 55.7196 61.7051 54.1872L60.7099 35.1985L59.2376 41.1664C57.6133 32.8815 55.3078 21.8158 52.3211 7.96943L52.3118 7.79141C53.3149 9.52391 54.3764 11.2335 55.4962 12.9203C55.8417 13.4575 56.1851 13.9552 56.5265 14.4133C56.6139 14.5674 56.7013 14.7215 56.7887 14.8756L56.9136 14.9881C55.051 11.2378 54.4274 6.53015 55.0429 0.864983C56.3416 2.93901 58.5189 10.4214 61.5745 23.3122C63.351 30.7164 65.0999 39.8675 66.8215 50.7654C68.649 62.1734 70.0601 69.4183 71.0547 72.5C73.0582 78.9403 75.9194 82.063 79.638 81.8681L80.0765 90.235Z" fill="#F2CE2B"/>
<path d="M92.4567 60.7869C92.6773 61.2117 92.898 61.6365 93.1186 62.0613C95.5706 64.9475 97.0368 67.5682 97.5173 69.9231C98.2888 74.0478 97.1146 78.1357 93.9948 82.1867C92.7327 83.8396 90.7772 85.509 88.1285 87.1948C85.0174 89.143 82.2741 90.1594 79.8984 90.2443L79.4631 81.9367C83.0234 81.7501 86.6871 80.5069 90.4541 78.2071C93.8337 76.0862 94.097 74.6749 93.7411 73.9398C92.9898 72.4718 88.4107 66.7089 88.4107 66.7089C88.4107 66.7089 86.0196 63.4022 84.6171 61.1977C81.6866 56.5917 81.7727 52.8411 78.0276 48.869C76.8073 47.5748 75.5763 46.4587 74.6312 45.8339C74.3439 45.6506 74.0566 45.4673 73.7693 45.284C73.6861 45.2091 73.6039 45.1539 73.5227 45.1185L73.4602 45.0622C73.7936 43.8547 74.5693 43.8141 74.9152 42.8439L74.9714 42.7814L79.6087 44.978L83.2686 46.6903L86.7389 58.4089L78.8832 49.3002L74.1935 43.8337L74.3029 43.6495L74.8527 42.7876L75.4057 41.9851L75.7431 41.6104L76.0211 41.2389L76.246 40.9891L76.9177 40.1803C80.5934 36.1399 85.0786 34.2982 90.3732 34.6554C93.0382 34.7935 95.3284 35.3478 97.2437 36.3185C91.6801 37.6414 88.4336 40.033 87.5043 43.4932C87.1729 44.7403 87.1476 46.1498 87.4283 47.7218C87.5386 48.3111 87.6904 48.9378 87.8839 49.602L88.1679 50.4797L88.4457 51.2387L88.7204 51.9383L88.867 52.4661L89.0793 53.1096C89.4059 54.0445 89.9293 55.3261 90.6493 56.9544C91.1842 58.0768 91.7866 59.3543 92.4567 60.7869ZM95.3159 54.0323L94.8412 54.0571C93.7731 54.1131 93.0049 53.4592 92.5368 52.0953C92.4265 51.5061 92.3631 51.0532 92.3466 50.7367L92.2564 49.0159C92.1382 46.761 92.5812 44.2386 93.5854 41.4489C93.3957 42.3712 93.3403 43.2071 93.4193 43.9567C93.6734 43.507 94.0212 42.9533 94.4628 42.2955C93.9188 44.7834 93.6707 46.4823 93.7183 47.3922C93.8324 49.568 94.4234 50.6279 95.4916 50.5719C95.808 50.5553 96.1173 50.4003 96.4192 50.1068C96.1233 51.2727 96.019 52.3095 96.1062 53.2173C96.5041 52.4824 97.0352 51.6414 97.6996 50.6942C97.139 52.8657 96.3444 53.9784 95.3159 54.0323ZM95.5333 101.325L95.0586 101.35C93.9905 101.406 93.2224 100.752 92.7542 99.3885C92.644 98.7992 92.5806 98.3464 92.564 98.0299L92.4738 96.309C92.3556 94.0541 92.7986 91.5318 93.8028 88.742C93.6131 89.6644 93.5578 90.5003 93.6367 91.2499C93.8908 90.8002 94.2387 90.2464 94.6802 89.5886C94.1362 92.0765 93.8881 93.7755 93.9358 94.6853C94.0498 96.8611 94.6409 97.921 95.709 97.8651C96.0255 97.8485 96.3347 97.6934 96.6367 97.3999C96.3407 98.5658 96.2364 99.6026 96.3236 100.51C96.7215 99.7756 97.2526 98.9345 97.917 97.9873C97.3564 100.159 96.5619 101.272 95.5333 101.325ZM67.3134 29.4972C66.133 28.9243 65.5241 28.2819 65.4868 27.5698C65.491 27.6489 66.0933 25.1381 67.2937 20.0373C68.3678 20.8537 70.3851 21.8785 73.3455 23.1118C75.4524 23.9534 76.5266 24.7698 76.568 25.561C76.7111 28.2906 76.0224 30.6672 74.5021 32.6906L69.6274 30.5065C71.1498 28.5226 72.2652 26.7187 72.9734 25.0949L72.9141 25.098L72.8579 25.1604C72.7433 25.2458 72.6298 25.3509 72.5174 25.4758C72.1759 25.7714 71.7958 26.0888 71.3772 26.4281C70.1257 27.525 68.8325 28.5845 67.4976 29.6065L67.3134 29.4972ZM86.9541 31.8595C85.8799 31.0431 83.8626 30.0183 80.9022 28.785C78.7953 27.9434 77.7211 27.127 77.6797 26.3358C77.5366 23.6062 78.2253 21.2296 79.7456 19.2062L84.6203 21.3903C83.0979 23.3742 81.9836 25.1979 81.2774 26.8613L81.3898 26.7364C81.5044 26.651 81.6189 26.5657 81.7334 26.4804C82.0729 26.1452 82.4519 25.808 82.8705 25.4687C84.1241 24.4113 85.4183 23.3716 86.7532 22.3496L86.9343 22.3996C88.1147 22.9725 88.7236 23.6149 88.7609 24.327C88.7567 24.2479 88.1545 26.7587 86.9541 31.8595ZM68.9803 19.2944C67.7999 18.7216 67.191 18.0791 67.1537 17.367C67.1579 17.4461 67.7601 14.9353 68.9606 9.83451C70.0347 10.6509 72.052 11.6757 75.0124 12.909C77.1193 13.7506 78.1935 14.567 78.2349 15.3582C78.378 18.0878 77.6893 20.4644 76.169 22.4878L71.2943 20.3037C72.8167 18.3198 73.9321 16.5159 74.6403 14.8921L74.581 14.8952L74.5248 14.9576C74.4102 15.043 74.2967 15.1481 74.1843 15.273C73.8427 15.5686 73.4627 15.886 73.0441 16.2253C71.7926 17.3223 70.4994 18.3817 69.1645 19.4037L68.9803 19.2944Z" fill="#F2CE2B"/>
<path d="M119.49 78.649C119.749 83.5939 119.518 87.5134 118.797 90.4073L117.792 84.8667L116.376 90.7722C116.566 87.5887 116.393 84.2855 115.857 80.8624C113.84 69.623 110.97 52.716 107.248 30.1414C106.714 26.0042 105.866 20.0389 104.704 12.2455C104.563 11.8165 103.967 10.6775 102.918 8.82839C102.741 8.48064 102.996 6.90041 103.681 4.08769L108.127 12.8396L107.738 5.42216L110.582 10.8664C112.692 14.8019 113.773 17.2642 113.825 18.2532C113.842 18.5697 113.731 18.7341 113.494 18.7466C113.336 18.7549 113.072 18.6497 112.704 18.431C111.676 17.7312 110.578 16.8367 109.41 15.7475C109.389 16.8593 110.581 24.0958 112.987 37.457C115.884 53.3709 117.872 65.187 118.951 72.9055C119.212 74.8752 119.392 76.7897 119.49 78.649Z" fill="#F2CE2B"/>
<path d="M136.348 51.7034C137.653 51.6349 138.671 50.2329 139.4 47.4972C138.548 48.6526 137.849 49.7008 137.304 50.6417C137.243 49.4945 137.394 48.1974 137.754 46.7504C137.375 47.0877 136.988 47.2666 136.592 47.2874C135.247 47.3578 134.503 46.0283 134.36 43.2987C134.298 42.1119 134.6 39.9341 135.267 36.7653C134.717 37.6272 134.279 38.3444 133.952 38.9169C133.863 37.9695 133.926 36.9149 134.143 35.7532C132.86 39.2716 132.294 42.4747 132.445 45.3626L132.557 47.4988C132.58 47.934 132.669 48.5045 132.825 49.2103C133.433 50.9636 134.409 51.805 135.754 51.7345L136.348 51.7034ZM134.405 79.3549C135.711 79.2864 136.708 77.8854 137.398 75.1518C136.588 76.3447 135.909 77.3918 135.361 78.2932C135.261 77.1481 135.392 75.852 135.752 74.405C135.375 74.7818 135.009 74.9795 134.653 74.9982C133.268 75.0708 132.503 73.7224 132.358 70.9533C132.298 69.806 132.621 67.647 133.328 64.4762C132.776 65.2985 132.317 65.9969 131.95 66.5715C131.902 65.6616 131.987 64.6258 132.204 63.464C130.92 66.9824 130.354 70.1856 130.506 73.0734L130.618 75.2097C130.638 75.6053 130.728 76.1758 130.886 76.9212C131.491 78.6349 132.447 79.4575 133.752 79.3891L134.405 79.3549ZM160.297 113.58C161.603 113.512 162.6 112.111 163.29 109.377C162.44 110.572 161.762 111.619 161.253 112.519C161.154 111.374 161.284 110.078 161.645 108.631C161.266 108.968 160.898 109.146 160.542 109.164C159.157 109.237 158.394 107.908 158.25 105.179C158.19 104.032 158.514 101.873 159.22 98.7018C158.629 99.5261 158.169 100.225 157.842 100.797C157.753 99.8497 157.837 98.7941 158.093 97.6303C156.81 101.149 156.244 104.352 156.395 107.24L156.507 109.376C156.53 109.811 156.6 110.402 156.719 111.15C157.364 112.861 158.339 113.683 159.645 113.615L160.297 113.58ZM170.921 19.9616C170.6 22.1602 170.182 23.273 169.668 23.3C169.51 23.3083 168.7 22.6168 167.239 21.2257L166.33 20.9163C164.866 20.993 163.648 25.0038 162.676 32.9488L162.423 34.9256L162.12 35.9531C161.464 34.7974 160.761 33.8624 160.009 33.1481C160.221 34.1683 160.423 35.3676 160.614 36.746C160.693 37.4956 160.752 38.2462 160.792 38.9978C160.604 39.206 160.432 39.3142 160.273 39.3225C159.996 39.337 159.648 38.3636 159.228 36.4022C159.172 36.0877 159.112 35.714 159.05 35.2809C158.594 34.1544 158.164 33.1258 157.758 32.195C156.453 29.2486 155.298 27.2662 154.292 26.2479L153.699 26.279L152.846 27.0377L152.312 27.0657C151.165 27.1258 149.8 26.0668 148.219 23.8886L148.2 23.5325C149.296 20.976 150.167 19.4427 150.815 18.9328L151.349 18.9048C151.89 20.8995 152.302 22.7027 152.585 24.3143C152.903 22.8298 153.092 21.134 153.151 19.2269C156.063 20.304 158.494 24.3021 160.444 31.2212L160.594 31.8084L160.603 31.9864L160.781 31.9771L160.875 31.4961C161.997 21.1235 164.081 15.8574 167.128 15.6978C167.998 15.6522 168.967 16.3551 170.035 17.8065C168.431 18.2475 167.021 18.5793 165.803 18.8018C167.287 19.1207 168.983 19.3095 170.89 19.3683L170.921 19.9616ZM176.851 108.131C179.811 109.364 181.829 110.389 182.903 111.206C184.103 106.105 184.706 103.594 184.71 103.673C184.672 102.961 184.064 102.319 182.883 101.746L182.699 101.636C181.404 102.656 180.11 103.716 178.819 104.815C178.401 105.154 178.021 105.472 177.679 105.767C177.565 105.853 177.47 105.937 177.395 106.02L177.282 106.145C177.989 104.482 179.084 102.679 180.569 100.737L175.695 98.5524C174.174 100.576 173.485 102.952 173.629 105.682C173.67 106.473 174.744 107.29 176.851 108.131ZM190.91 84.6049C186.638 84.8288 183.083 82.8532 180.246 78.678C177.497 74.6569 175.715 69.0381 174.9 61.8214C174.605 59.2188 173.566 55.2866 171.783 50.0248C171.722 51.8924 171.148 54.9373 170.06 59.1595C168.964 61.716 167.944 63.4356 166.998 64.3182C166.507 64.7803 165.406 65.3536 163.697 66.0383C163.707 66.236 164.005 67.3906 164.592 69.502C165.179 71.6133 165.486 72.9261 165.513 73.4404C165.888 78.3396 165.437 82.5879 164.157 86.1855C163.226 88.8524 158.436 93.5859 149.788 100.386C141.181 107.224 132.562 113.07 123.931 117.926C122.955 118.215 121.273 118.68 118.887 119.321C120.47 116.977 122.59 114.664 125.247 112.383C126.082 111.665 126.92 111.006 127.762 110.406C128.028 110.194 128.296 110.002 128.564 109.829C128.641 109.785 128.699 109.742 128.736 109.701L128.796 109.698L128.852 109.635C126.014 110.736 123.243 112.369 120.54 114.533C118.408 116.232 116.371 118.243 114.43 120.566C109.539 121.854 102.963 123.547 94.7034 125.646C93.2542 126 92.5151 125.899 92.4861 125.346C92.4757 125.148 92.7423 124.936 93.2858 124.709C105.253 119.163 117.253 112.742 129.287 105.447C133.102 103.304 139.088 99.4593 147.247 93.9145C150.752 91.1524 154.238 88.4111 157.705 85.6906C161.352 82.6037 163.135 80.3086 163.057 78.8053C162.918 76.1548 161.419 72.5442 158.562 67.9734C155.704 63.4027 154.273 61.0777 154.269 60.9986L154.198 59.6338C156.19 61.3144 158.082 63.3574 159.874 65.7626C160.43 66.5268 160.966 67.2921 161.482 68.0584C161.613 68.2895 161.744 68.5207 161.875 68.7518L162.003 68.9236L162.006 68.983C160.671 64.6894 158.111 60.4997 154.326 56.4139C154.46 55.1772 154.654 53.9571 154.908 52.7537C155.66 52.7144 156.673 53.5141 157.949 55.153C159.267 56.8293 160.578 57.6333 161.884 57.5649C165.523 57.3741 167.807 55.5289 168.734 52.0292L169.639 43.1754L169.686 42.9349C171.99 45.2736 173.821 47.6569 175.177 50.0849C174.268 47.1177 172.746 44.1827 170.61 41.2799C170.946 40.8656 171.359 40.4274 171.851 39.9653C172.893 40.942 173.768 42.483 174.473 44.5881C175.407 47.2762 176.924 53.1272 179.022 62.1409C181.161 71.1526 184.978 75.8714 190.475 76.2974L190.91 84.6049ZM173.416 93.6736C176.376 94.9069 178.393 95.9317 179.468 96.7481C180.668 91.6473 181.27 89.1365 181.274 89.2156C181.237 88.5035 180.628 87.861 179.448 87.2882L179.264 87.1789C177.968 88.1988 176.675 89.2583 175.384 90.3573C174.965 90.6966 174.585 91.014 174.244 91.3096C174.129 91.3949 174.035 91.4792 173.96 91.5625L173.847 91.6874C174.553 90.024 175.649 88.2212 177.134 86.2789L172.259 84.0948C170.739 86.1182 170.05 88.4948 170.193 91.2244C170.235 92.0156 171.309 92.832 173.416 93.6736Z" fill="#F2CE2B"/>
<path d="M212.731 42.2855L212.079 42.3197C210.773 42.3882 209.817 41.5457 209.209 39.7925C209.053 39.0867 208.964 38.5161 208.941 38.081L208.829 35.9448C208.678 33.0569 209.244 29.8538 210.527 26.3354C210.31 27.4971 210.227 28.5527 210.276 29.5021C210.643 28.9276 211.101 28.2094 211.651 27.3475C210.944 30.5183 210.622 32.6971 210.685 33.8839C210.828 36.6136 211.591 37.9421 212.976 37.8695C213.332 37.8509 213.7 37.6729 214.079 37.3357C213.718 38.7827 213.588 40.0787 213.687 41.2239C214.233 40.2829 214.912 39.2358 215.724 38.0825C215.034 40.8161 214.037 42.2171 212.731 42.2855ZM210.285 88.7067C210.681 88.686 211.067 88.4873 211.444 88.1105C211.044 89.5595 210.894 90.8566 210.993 92.0018C211.541 91.1004 212.24 90.0522 213.09 88.8573C212.36 91.593 211.343 92.995 210.037 93.0634L209.385 93.0976C208.079 93.166 207.124 92.3434 206.518 90.6297C206.36 89.8843 206.271 89.3138 206.25 88.9182L206.138 86.782C205.987 83.8941 206.553 80.691 207.836 77.1726C207.617 78.2948 207.552 79.3295 207.642 80.2769C207.969 79.7044 208.408 79.007 208.96 78.1847C208.254 81.3555 207.93 83.5146 207.99 84.6618C208.136 87.431 208.9 88.7793 210.285 88.7067ZM198.9 64.4908L198.307 64.5219C196.962 64.5924 195.987 63.7708 195.381 62.0571C195.223 61.3117 195.134 60.7412 195.113 60.3456L195.001 58.2094C194.85 55.3215 195.436 52.1173 196.758 48.5969C196.502 49.7607 196.419 50.8163 196.508 51.7636C196.833 51.1516 197.271 50.4344 197.823 49.6121C197.156 52.7809 196.853 54.9389 196.913 56.0861C197.058 58.8553 197.803 60.2046 199.148 60.1341C199.544 60.1134 199.93 59.9147 200.307 59.5379C199.946 60.9848 199.816 62.2809 199.916 63.426C200.424 62.5267 201.103 61.4796 201.953 60.2847C201.223 63.0203 200.206 64.4224 198.9 64.4908ZM210.256 65.4428C212.121 66.9714 213.176 67.8086 213.422 67.9544C214.775 68.7959 216.327 69.2699 218.078 69.3765C217.964 67.9544 217.5 66.6697 216.686 65.5223C215.835 64.4165 214.974 63.8864 214.104 63.932C212.442 64.0191 211.16 64.5227 210.256 65.4428ZM222.958 62.5755C223.624 64.6827 224.028 67.1011 224.171 69.8307C224.227 70.8988 224.145 71.9742 223.924 73.0568C219.695 72.6041 215.799 72.4314 212.234 72.5389C215.551 72.9998 218.939 74.4486 222.399 76.8854C221.628 78.0762 220.729 78.6985 219.7 78.7524C218.197 78.8312 215.904 78.2175 212.82 76.9114C209.288 75.3511 206.675 73.5641 204.983 71.5504C202.891 75.5475 201.473 78.0019 200.727 78.9137C198.014 82.388 194.699 84.2279 190.782 84.4331L190.347 76.1256C193.037 75.9846 195.563 75.3564 197.924 74.2409C199.394 73.5292 201.152 71.4933 203.197 68.1333C205.134 64.9773 206.32 63.3879 206.755 63.3651C206.953 63.3548 207.138 63.4839 207.311 63.7525C209.734 58.5083 212.527 55.8033 215.692 55.6374C218.184 55.5068 220.179 56.8502 221.675 59.6676C218.971 59.5316 216.648 59.4947 214.708 59.5567C217.383 59.8925 220.133 60.8988 222.958 62.5755Z" fill="#F2CE2B"/>
</svg>
